<mxfile modified="2020-08-26T11:53:42.738Z" host="app.diagrams.net" agent="5.0 (X11; Linux x86_64) AppleWebKit/537.36 (KHTML, like Gecko) Chrome/84.0.4147.135 Safari/537.36" etag="RvV59AmfTXvOJNu3A27T" version="13.6.5" type="github">
  <diagram id="WI9T0HZ2pTsCkuznbFz-" name="Page-1">
    <mxGraphModel dx="1422" dy="921" grid="1" gridSize="10" guides="1" tooltips="1" connect="1" arrows="1" fold="1" page="1" pageScale="1" pageWidth="1169" pageHeight="827" math="0" shadow="0">
      <root>
        <mxCell id="0" />
        <mxCell id="1" parent="0" />
        <mxCell id="oiR4AqOKDmJaXYHkN7h8-17" value="KAFKA" style="rounded=0;whiteSpace=wrap;html=1;sketch=0;rotation=90;fillColor=#f5f5f5;strokeColor=#666666;fontColor=#333333;" parent="1" vertex="1">
          <mxGeometry x="520" y="160" width="40" height="487.75" as="geometry" />
        </mxCell>
        <mxCell id="oiR4AqOKDmJaXYHkN7h8-36" value="Users Service" style="rounded=1;whiteSpace=wrap;html=1;sketch=0;" parent="1" vertex="1">
          <mxGeometry x="300" y="190" width="120" height="20" as="geometry" />
        </mxCell>
        <mxCell id="oiR4AqOKDmJaXYHkN7h8-37" value="APScheduler" style="rounded=1;whiteSpace=wrap;html=1;sketch=0;" parent="1" vertex="1">
          <mxGeometry x="510" y="190" width="117" height="20" as="geometry" />
        </mxCell>
        <mxCell id="oiR4AqOKDmJaXYHkN7h8-38" value="APScheduler" style="rounded=1;whiteSpace=wrap;html=1;sketch=0;" parent="1" vertex="1">
          <mxGeometry x="670" y="190" width="115.5" height="20" as="geometry" />
        </mxCell>
        <mxCell id="3YZ4RTQzVcewJYnvILxL-3" value="" style="endArrow=classic;html=1;exitX=0.5;exitY=1;exitDx=0;exitDy=0;" edge="1" parent="1">
          <mxGeometry width="50" height="50" relative="1" as="geometry">
            <mxPoint x="360.5" y="210" as="sourcePoint" />
            <mxPoint x="359.5" y="320" as="targetPoint" />
          </mxGeometry>
        </mxCell>
        <mxCell id="3YZ4RTQzVcewJYnvILxL-7" value="Users Service Store" style="rounded=1;whiteSpace=wrap;html=1;sketch=0;" vertex="1" parent="1">
          <mxGeometry x="318" y="320" width="80" height="20" as="geometry" />
        </mxCell>
        <mxCell id="3YZ4RTQzVcewJYnvILxL-8" value="Calculator Service Store" style="rounded=1;whiteSpace=wrap;html=1;sketch=0;" vertex="1" parent="1">
          <mxGeometry x="528.5" y="320" width="80" height="20" as="geometry" />
        </mxCell>
        <mxCell id="3YZ4RTQzVcewJYnvILxL-9" value="Notifications Service Store" style="rounded=1;whiteSpace=wrap;html=1;sketch=0;" vertex="1" parent="1">
          <mxGeometry x="694" y="320" width="91.5" height="20" as="geometry" />
        </mxCell>
        <mxCell id="3YZ4RTQzVcewJYnvILxL-10" value="" style="endArrow=classic;html=1;exitX=0.5;exitY=1;exitDx=0;exitDy=0;entryX=-0.097;entryY=0.787;entryDx=0;entryDy=0;entryPerimeter=0;" edge="1" parent="1" target="oiR4AqOKDmJaXYHkN7h8-17">
          <mxGeometry width="50" height="50" relative="1" as="geometry">
            <mxPoint x="401" y="210" as="sourcePoint" />
            <mxPoint x="400" y="320" as="targetPoint" />
          </mxGeometry>
        </mxCell>
        <mxCell id="3YZ4RTQzVcewJYnvILxL-12" value="(1)" style="text;html=1;strokeColor=none;fillColor=none;align=center;verticalAlign=middle;whiteSpace=wrap;rounded=0;" vertex="1" parent="1">
          <mxGeometry x="350" y="120" width="77" height="20" as="geometry" />
        </mxCell>
        <mxCell id="3YZ4RTQzVcewJYnvILxL-14" value="" style="endArrow=classic;html=1;exitX=0.5;exitY=1;exitDx=0;exitDy=0;" edge="1" parent="1">
          <mxGeometry width="50" height="50" relative="1" as="geometry">
            <mxPoint x="358.5" y="90" as="sourcePoint" />
            <mxPoint x="358" y="180" as="targetPoint" />
          </mxGeometry>
        </mxCell>
        <mxCell id="3YZ4RTQzVcewJYnvILxL-15" value="" style="endArrow=classic;html=1;" edge="1" parent="1">
          <mxGeometry width="50" height="50" relative="1" as="geometry">
            <mxPoint x="300" y="490" as="sourcePoint" />
            <mxPoint x="430" y="490" as="targetPoint" />
          </mxGeometry>
        </mxCell>
        <mxCell id="3YZ4RTQzVcewJYnvILxL-16" value="Data Movement" style="edgeLabel;html=1;align=center;verticalAlign=middle;resizable=0;points=[];" vertex="1" connectable="0" parent="3YZ4RTQzVcewJYnvILxL-15">
          <mxGeometry x="-0.3714" y="1" relative="1" as="geometry">
            <mxPoint as="offset" />
          </mxGeometry>
        </mxCell>
        <mxCell id="3YZ4RTQzVcewJYnvILxL-17" value="Client&amp;nbsp;" style="rounded=1;whiteSpace=wrap;html=1;sketch=0;" vertex="1" parent="1">
          <mxGeometry x="298" y="60" width="120" height="20" as="geometry" />
        </mxCell>
        <mxCell id="3YZ4RTQzVcewJYnvILxL-18" value="&lt;span style=&quot;color: rgb(0 , 0 , 0) ; font-family: &amp;#34;helvetica&amp;#34; ; font-size: 12px ; font-style: normal ; font-weight: 400 ; letter-spacing: normal ; text-align: center ; text-indent: 0px ; text-transform: none ; word-spacing: 0px ; background-color: rgb(248 , 249 , 250) ; display: inline ; float: none&quot;&gt;(2)&lt;/span&gt;" style="text;whiteSpace=wrap;html=1;" vertex="1" parent="1">
          <mxGeometry x="318" y="250" width="40" height="30" as="geometry" />
        </mxCell>
        <mxCell id="3YZ4RTQzVcewJYnvILxL-19" value="" style="endArrow=classic;html=1;entryX=0;entryY=1;entryDx=0;entryDy=0;" edge="1" parent="1">
          <mxGeometry width="50" height="50" relative="1" as="geometry">
            <mxPoint x="515" y="380" as="sourcePoint" />
            <mxPoint x="515" y="210" as="targetPoint" />
          </mxGeometry>
        </mxCell>
        <mxCell id="3YZ4RTQzVcewJYnvILxL-20" value="" style="endArrow=classic;html=1;exitX=0.5;exitY=1;exitDx=0;exitDy=0;" edge="1" parent="1">
          <mxGeometry width="50" height="50" relative="1" as="geometry">
            <mxPoint x="531" y="210" as="sourcePoint" />
            <mxPoint x="530" y="320" as="targetPoint" />
          </mxGeometry>
        </mxCell>
        <mxCell id="3YZ4RTQzVcewJYnvILxL-21" value="" style="endArrow=classic;html=1;exitX=0.5;exitY=1;exitDx=0;exitDy=0;" edge="1" parent="1">
          <mxGeometry width="50" height="50" relative="1" as="geometry">
            <mxPoint x="571" y="320" as="sourcePoint" />
            <mxPoint x="570" y="210" as="targetPoint" />
          </mxGeometry>
        </mxCell>
        <mxCell id="3YZ4RTQzVcewJYnvILxL-22" value="&lt;span style=&quot;color: rgb(0 , 0 , 0) ; font-family: &amp;#34;helvetica&amp;#34; ; font-size: 12px ; font-style: normal ; font-weight: 400 ; letter-spacing: normal ; text-align: center ; text-indent: 0px ; text-transform: none ; word-spacing: 0px ; background-color: rgb(248 , 249 , 250) ; display: inline ; float: none&quot;&gt;(3)&lt;/span&gt;" style="text;whiteSpace=wrap;html=1;" vertex="1" parent="1">
          <mxGeometry x="480" y="240" width="40" height="30" as="geometry" />
        </mxCell>
        <mxCell id="3YZ4RTQzVcewJYnvILxL-23" value="" style="endArrow=classic;html=1;" edge="1" parent="1">
          <mxGeometry width="50" height="50" relative="1" as="geometry">
            <mxPoint x="580.5" y="210" as="sourcePoint" />
            <mxPoint x="580" y="320" as="targetPoint" />
          </mxGeometry>
        </mxCell>
        <mxCell id="3YZ4RTQzVcewJYnvILxL-24" value="&lt;span style=&quot;color: rgb(0 , 0 , 0) ; font-family: &amp;#34;helvetica&amp;#34; ; font-size: 12px ; font-style: normal ; font-weight: 400 ; letter-spacing: normal ; text-align: center ; text-indent: 0px ; text-transform: none ; word-spacing: 0px ; background-color: rgb(248 , 249 , 250) ; display: inline ; float: none&quot;&gt;(4)&lt;/span&gt;" style="text;whiteSpace=wrap;html=1;" vertex="1" parent="1">
          <mxGeometry x="545" y="240" width="40" height="30" as="geometry" />
        </mxCell>
        <mxCell id="3YZ4RTQzVcewJYnvILxL-27" value="" style="endArrow=classic;html=1;entryX=-0.072;entryY=0.332;entryDx=0;entryDy=0;entryPerimeter=0;exitX=0.957;exitY=1;exitDx=0;exitDy=0;exitPerimeter=0;" edge="1" parent="1" source="oiR4AqOKDmJaXYHkN7h8-37" target="oiR4AqOKDmJaXYHkN7h8-17">
          <mxGeometry width="50" height="50" relative="1" as="geometry">
            <mxPoint x="622" y="220" as="sourcePoint" />
            <mxPoint x="608.5" y="320" as="targetPoint" />
          </mxGeometry>
        </mxCell>
        <mxCell id="3YZ4RTQzVcewJYnvILxL-28" value="" style="endArrow=classic;html=1;entryX=0;entryY=1;entryDx=0;entryDy=0;" edge="1" parent="1">
          <mxGeometry width="50" height="50" relative="1" as="geometry">
            <mxPoint x="689" y="380" as="sourcePoint" />
            <mxPoint x="689" y="210" as="targetPoint" />
          </mxGeometry>
        </mxCell>
        <mxCell id="3YZ4RTQzVcewJYnvILxL-29" value="" style="endArrow=classic;html=1;exitX=0.5;exitY=1;exitDx=0;exitDy=0;" edge="1" parent="1">
          <mxGeometry width="50" height="50" relative="1" as="geometry">
            <mxPoint x="701" y="210" as="sourcePoint" />
            <mxPoint x="700" y="320" as="targetPoint" />
          </mxGeometry>
        </mxCell>
        <mxCell id="3YZ4RTQzVcewJYnvILxL-31" value="" style="endArrow=classic;html=1;exitX=0.5;exitY=1;exitDx=0;exitDy=0;" edge="1" parent="1">
          <mxGeometry width="50" height="50" relative="1" as="geometry">
            <mxPoint x="740.25" y="320" as="sourcePoint" />
            <mxPoint x="739.25" y="210" as="targetPoint" />
          </mxGeometry>
        </mxCell>
        <mxCell id="3YZ4RTQzVcewJYnvILxL-32" value="CalculatorService" style="rounded=1;whiteSpace=wrap;html=1;sketch=0;" vertex="1" parent="1">
          <mxGeometry x="510" y="170" width="117" height="20" as="geometry" />
        </mxCell>
        <mxCell id="3YZ4RTQzVcewJYnvILxL-35" value="&lt;span style=&quot;color: rgb(0 , 0 , 0) ; font-family: &amp;#34;helvetica&amp;#34; ; font-size: 12px ; font-style: normal ; font-weight: 400 ; letter-spacing: normal ; text-align: center ; text-indent: 0px ; text-transform: none ; word-spacing: 0px ; background-color: rgb(248 , 249 , 250) ; display: inline ; float: none&quot;&gt;(5)&lt;/span&gt;" style="text;whiteSpace=wrap;html=1;" vertex="1" parent="1">
          <mxGeometry x="668" y="240" width="40" height="30" as="geometry" />
        </mxCell>
        <mxCell id="3YZ4RTQzVcewJYnvILxL-41" value="Notifications Service" style="rounded=1;whiteSpace=wrap;html=1;sketch=0;" vertex="1" parent="1">
          <mxGeometry x="668" y="170" width="115.5" height="20" as="geometry" />
        </mxCell>
        <mxCell id="3YZ4RTQzVcewJYnvILxL-42" value="" style="endArrow=classic;html=1;" edge="1" parent="1">
          <mxGeometry width="50" height="50" relative="1" as="geometry">
            <mxPoint x="785.5" y="199.5" as="sourcePoint" />
            <mxPoint x="885.5" y="199.5" as="targetPoint" />
          </mxGeometry>
        </mxCell>
        <mxCell id="3YZ4RTQzVcewJYnvILxL-43" value="&lt;span style=&quot;color: rgb(0 , 0 , 0) ; font-family: &amp;#34;helvetica&amp;#34; ; font-size: 12px ; font-style: normal ; font-weight: 400 ; letter-spacing: normal ; text-align: center ; text-indent: 0px ; text-transform: none ; word-spacing: 0px ; background-color: rgb(248 , 249 , 250) ; display: inline ; float: none&quot;&gt;(6)&lt;/span&gt;" style="text;whiteSpace=wrap;html=1;" vertex="1" parent="1">
          <mxGeometry x="830" y="165" width="40" height="30" as="geometry" />
        </mxCell>
      </root>
    </mxGraphModel>
  </diagram>
</mxfile>
